# AST/ASF file generated using VICON BodyLanguage
# -----------------------------------------------
:version 1.10
:name VICON
:units
  mass 1.0
  length 0.45
  angle deg
:documentation
   .ast/.asf automatically generated from VICON data using
   VICON BodyBuilder and BodyLanguage model FoxedUp or BRILLIANT.MOD
:root
   order TX TY TZ RX RY RZ
   axis XYZ
   position 0 0 0  
   orientation 0 0 0 
:bonedata
  begin
     id 1 
     name lhipjoint
     direction 0.714689 -0.624256 0.315473 
     length 2.45343 
     axis 0 0 0  XYZ
  end
  begin
     id 2 
     name lfemur
     direction 0.34202 -0.939693 0  
     length 6.59069  
     axis 0 0 20  XYZ
    dof rx ry rz
    limits (-160.0 20.0)
           (-70.0 70.0)
           (-60.0 70.0)
  end
  begin
     id 3 
     name ltibia
     direction 0.34202 -0.939693 0   
     length 6.73476   
     axis 0 0 20   XYZ
    dof rx
    limits (-10.0 170.0)
  end
  begin
     id 4 
     name lfoot
     direction 0.0718085 -0.197292 0.977711   
     length 1.52607   
     axis -90 7.62852e-016 20   XYZ
    dof rx rz
    limits (-45.0 90.0)
           (-70.0 20.0)
  end
  begin
     id 5 
     name ltoes
     direction 1.53553e-011 -4.22024e-011 1   
     length 0.777832   
     axis -90 7.62852e-016 20   XYZ
    dof rx
    limits (-90.0 20.0)
  end
  begin
     id 6 
     name rhipjoint
     direction -0.727419 -0.612432 0.309497   
     length 2.50079  
     axis 0 0 0  XYZ 
  end
  begin
     id 7 
     name rfemur
     direction -0.34202 -0.939693 0   
     length 6.51665   
     axis 0 0 -20   XYZ
    dof rx ry rz
    limits (-160.0 20.0)
           (-70.0 70.0)
           (-70.0 60.0)
  end
  begin
     id 8 
     name rtibia
     direction -0.34202 -0.939693 0   
     length 6.48919   
     axis 0 0 -20   XYZ
    dof rx
    limits (-10.0 170.0)
 end
 begin
     id 9 
     name rfoot
     direction -0.112205 -0.308282 0.944655   
     length 1.68717  
     axis -90 -7.62852e-016 -20   XYZ
    dof rx rz
    limits (-45.0 90.0)
           (-20.0 70.0)
  end
  begin
     id 10 
     name rtoes
     direction -1.53583e-011 -4.21993e-011 1   
     length 0.846859   
     axis -90 -7.62852e-016 -20   XYZ
    dof rx
    limits (-90.0 20.0)
  end
  begin
     id 11 
     name lowerback
     direction -0.00119603 0.996364 -0.0851956   
     length 1.67242   
     axis 0 0 0   XYZ
    dof rx ry rz
    limits (-20.0 45.0)
           (-30.0 30.0)
           (-30.0 30.0)
  end
  begin
     id 12 
     name upperback
     direction -0.00531001 0.998318 0.0577248   
     length 1.64819   
     axis 0 0 0   XYZ
    dof rx ry rz
    limits (-20.0 45.0)
           (-30.0 30.0)
           (-30.0 30.0)
  end
  begin
     id 13 
     name thorax
     direction -0.00653676 0.995132 0.0983291   
     length 1.67429   
     axis 0 0 0   XYZ
    dof rx ry rz
    limits (-20.0 45.0)
           (-30.0 30.0)
           (-30.0 30.0)
  end
  begin
     id 14 
     name lowerneck
     direction 0.0141424 0.999886 0.00525412   
     length 1.59623   
     axis 0 0 0   XYZ
    dof rx ry rz
    limits (-20.0 45.0)
           (-30.0 30.0)
           (-30.0 30.0)
  end
  begin
     id 15 
     name upperneck
     direction -0.0640064 0.987178 -0.146232   
     length 1.59576   
     axis 0 0 0   XYZ
    dof rx ry rz
    limits (-20.0 45.0)
           (-30.0 30.0)
           (-30.0 30.0)
  end
  begin
     id 16
     name head
     direction -0.0222942 0.998496 -0.0500859  
     length 1.60959  
     axis 0 0 0   XYZ
    dof rx ry rz
    limits (-20.0 45.0)
           (-30.0 30.0)
           (-30.0 30.0)
  end
  begin
     id 17 
     name lclavicle
     direction 0.908549 0.392612 0.142806  
     length 2.80649  
     axis 0 0 0   XYZ
    dof ry rz
    limits (-20.0 10.0)
           (0.0 20.0)
  end
  begin
     id 18 
     name lhumerus
     direction 1 -4.48968e-011 1.08832e-028   
     length 4.2884   
     axis -180 -30 -90   XYZ
    dof rx ry rz
    limits (-60.0 90.0)
           (-90.0 90.0)
           (-90.0 90.0)
  end
  begin
     id 19
     name lradius
     direction 1 -4.48952e-011 -3.02642e-028   
     length 3.06552   
     axis -180 -30 -90   XYZ
    dof rx
    limits (-10.0 170.0)
  end
  begin
     id 20
     name lwrist
     direction 1 -4.49014e-011 1.58672e-027   
     length 1.53276   
     axis -1.65735e-015 90 90   XYZ
    dof ry
    limits (-180.0 0.0)
 end
  begin
     id 21 
     name lhand
     direction 1 -4.48928e-011 3.17344e-027   
     length 0.753045   
     axis -2.02492e-015 90 90   XYZ
    dof rx rz
    limits (-90.0 90.0)
           (-45.0 45.0)
  end
  begin
     id 22 
     name lfingers
     direction 1 -4.48958e-011 6.34687e-027   
     length 0.607124   
     axis -4.04985e-015 90 90   XYZ
    dof rx
    limits (0.0 90.0)
  end
  begin
     id 23
     name lthumb
     direction 0.707107 -6.34905e-011 0.707107   
     length 0.871712   
     axis -90 45 2.85299e-015   XYZ
    dof rx rz
    limits (-45.0 45.0)
           (-45.0 45.0)
  end
  begin
     id 24 
     name rclavicle
     direction -0.885098 0.45949 0.0739604   
     length 2.9478  
     axis 0 0 0   XYZ 
    dof ry rz
    limits (-10.0 20.0)
           (-20.0 0.0)
  end
  begin
     id 25 
     name rhumerus
     direction -1 -4.4898e-011 -2.61739e-027  
     length 4.52172   
     axis -180 30 90   XYZ
    dof rx ry rz
    limits (-90.0 60.0)
           (-90.0 90.0)
           (-90.0 90.0)
  end
  begin
     id 26 
     name rradius
     direction -1 -4.48945e-011 9.02552e-028   
     length 2.8914   
     axis -180 30 90   XYZ
    dof rx
    limits (-10.0 170.0)
  end
  begin
     id 27 
     name rwrist
     direction -1 -4.49018e-011 1.58672e-027   
     length 1.4457   
     axis -1.65735e-015 -90 -90   XYZ
    dof ry
    limits (-180.0 0.0)
  end
  begin
     id 28
     name rhand
     direction -1 -4.48825e-011 3.17344e-027   
     length 0.680541   
     axis -2.02492e-015 -90 -90   XYZ
    dof rx rz
    limits (-90.0 90.0)
           (-45.0 45.0)
  end
  begin
     id 29
     name rfingers
     direction -1 -4.49067e-011 6.34687e-027   
     length 0.54867   
     axis -4.04985e-015 -90 -90   XYZ
    dof rx
    limits (0.0 90.0)
  end
  begin
     id 30
     name rthumb
     direction -0.707107 -6.34833e-011 0.707107   
     length 0.787783   
     axis -90 -45 -2.85299e-015   XYZ
    dof rx rz
    limits (-45.0 45.0)
           (-45.0 45.0)
  end
:hierarchy
  begin
    root lhipjoint rhipjoint lowerback
    lhipjoint lfemur
    lfemur ltibia
    ltibia lfoot
    lfoot ltoes
    rhipjoint rfemur
    rfemur rtibia
    rtibia rfoot
    rfoot rtoes
    lowerback upperback
    upperback thorax
    thorax lowerneck lclavicle rclavicle
    lowerneck upperneck
    upperneck head
    lclavicle lhumerus
    lhumerus lradius
    lradius lwrist
    lwrist lhand lthumb
    lhand lfingers
    rclavicle rhumerus
    rhumerus rradius
    rradius rwrist
    rwrist rhand rthumb
    rhand rfingers
  end

#!OML:ASF E:\emotionWalksFemale\Project 1\Capture day 1\Session 1\Female1.ASF
:FULLY-SPECIFIED
:DEGREES
146
root 9.9341 16.8676 -1.91559 2.1768 -0.499984 -3.13588
lowerback 13.8032 1.0056 0.987909
upperback -1.75558 1.50897 -0.0202168
thorax -9.63913 0.669091 -0.910358
lowerneck -9.36436 -2.43411 -4.31279
upperneck 21.4599 -3.57143 4.44702
head 8.35051 -1.60064 1.85741
rclavicle 1.14301e-015 -8.74653e-015
rhumerus -47.7695 12.1645 -75.1698
rradius 62.5744
rwrist 3.20773
rhand -7.12455 -49.2006
rfingers 7.12502
rthumb 18.751 -78.3169
lclavicle 1.14301e-015 -8.74653e-015
lhumerus -50.5673 -0.959072 80.9209
lradius 35.1921
lwrist -14.6346
lhand -5.59192 -50.9953
lfingers 7.12502
lthumb 20.2246 -22.0282
rfemur -17.263 11.5203 25.7758
rtibia 20.3952
rfoot 25.144 -15.6761
rtoes 5.34531
lfemur -23.071 -14.8602 -16.4341
ltibia 29.1341
lfoot 15.8865 16.2306
ltoes -10.0932
147
root 9.94545 16.5526 -1.8129 1.63478 -0.434375 -3.13128
lowerback 13.9953 0.938706 1.03746
upperback -1.7823 1.4263 -0.0669071
thorax -9.77899 0.623577 -0.975262
lowerneck -9.20847 -2.41538 -4.24777
upperneck 21.0242 -3.57478 4.5688
head 8.17631 -1.58986 1.88555
rclavicle 2.57923e-014 -4.77083e-015
rhumerus -48.7603 11.6355 -76.1855
rradius 62.4003
rwrist 3.35855
rhand -7.31439 -49.0982
rfingers 7.12502
rthumb 18.5684 -78.232
lclavicle 2.57923e-014 -4.77083e-015
lhumerus -51.1784 0.875877 80.0761
lradius 34.4431
lwrist -15.7348
lhand -5.14496 -50.8654
lfingers 7.12502
lthumb 20.6541 -21.9444
rfemur -17.5142 9.5088 26.5622
rtibia 24.3475
rfoot 18.5777 -13.186
rtoes 4.21106
lfemur -22.8912 -12.4507 -17.5026
ltibia 32.3968
lfoot 9.65595 12.7001
ltoes -18.3879
148
root 9.9578 16.2188 -1.71682 1.07905 -0.392702 -3.2435
lowerback 14.0756 0.857855 1.18539
upperback -1.67158 1.34693 -0.038085
thorax -9.7028 0.579529 -1.01057
lowerneck -8.77632 -2.40259 -4.32245
upperneck 20.1864 -3.56304 4.72931
head 7.8219 -1.58542 1.95141
rclavicle 4.89507e-015 2.78299e-015
rhumerus -49.292 11.1569 -77.1845
rradius 61.9037
rwrist 3.76311
rhand -7.51717 -49.1083
rfingers 7.12502
rthumb 18.3734 -78.2606
lclavicle 4.89507e-015 2.78299e-015
lhumerus -51.5751 2.70003 79.3005
lradius 33.7284
lwrist -16.7741
lhand -4.68956 -50.4065
lfingers 7.12502
lthumb 21.0917 -21.5337
rfemur -17.8594 7.60039 27.421
rtibia 28.5814
rfoot 10.8698 -9.49421
rtoes -6.43931
lfemur -22.9874 -10.2886 -18.2555
ltibia 36.0426
lfoot 4.96385 7.69546
ltoes -35.9318
149
root 9.96509 15.9895 -1.63435 0.54663 -0.310741 -3.33173
lowerback 14.357 0.772308 1.27569
upperback -1.60251 1.25404 -0.0166963
thorax -9.79031 0.529914 -1.02276
lowerneck -8.33697 -2.36021 -4.46806
upperneck 19.2829 -3.52364 5.03248
head 7.45074 -1.56126 2.07795
rclavicle -2.41026e-015 1.03368e-014
rhumerus -49.7252 10.6813 -78.2118
rradius 61.3315
rwrist 4.38259
rhand -7.92861 -49.1612
rfingers 7.12502
rthumb 17.9775 -78.3503
lclavicle -2.41026e-015 1.03368e-014
lhumerus -51.8962 4.31831 78.5923
lradius 32.972
lwrist -17.7635
lhand -4.25199 -49.6802
lfingers 7.12502
lthumb 21.512 -20.8548
rfemur -18.5534 5.87346 28.1548
rtibia 32.741
rfoot 5.74736 -8.31708
rtoes -12.1876
lfemur -23.7266 -8.88025 -18.6628
ltibia 39.7888
lfoot -0.149539 6.69607
ltoes -30.6708
150
root 9.9681 15.7518 -1.56155 0.0594628 -0.254653 -3.40043
lowerback 14.9874 0.707413 1.35181
upperback -1.72557 1.18926 -0.0460473
thorax -10.2909 0.487109 -1.0963
lowerneck -7.93805 -2.34385 -4.58684
upperneck 18.6539 -3.53471 5.35217
head 7.18208 -1.55709 2.20109
rclavicle -1.70458e-014 -1.15295e-014
rhumerus -50.1635 10.1719 -79.3086
rradius 60.3922
rwrist 5.35925
rhand -8.54217 -48.8462
rfingers 7.12502
rthumb 17.3871 -78.0885
lclavicle -1.70458e-014 -1.15295e-014
lhumerus -52.0608 5.80016 77.7499
lradius 31.7501
lwrist -19.2486
lhand -4.07134 -49.2983
lfingers 7.12502
lthumb 21.6855 -20.4928
rfemur -19.4706 4.64257 28.7482
rtibia 36.7966
rfoot -0.57768 -8.9175
rtoes -6.24891
lfemur -24.5468 -7.9132 -18.9023
ltibia 43.1662
lfoot -4.99788 6.20048
ltoes -26.2071
151
root 9.96467 15.5104 -1.48691 -0.516483 -0.286534 -3.61369
lowerback 15.5302 0.684545 1.52488
upperback -1.73355 1.19963 -0.053886
thorax -10.6108 0.477336 -1.2158
lowerneck -7.74819 -2.42273 -4.49617
upperneck 18.204 -3.65848 5.41775
head 7.0089 -1.61081 2.19526
rclavicle 1.12065e-014 2.38542e-015
rhumerus -50.2352 9.46867 -80.3883
rradius 58.9424
rwrist 6.70782
rhand -9.0102 -49.0091
rfingers 7.12502
rthumb 16.9366 -78.2907
lclavicle 1.12065e-014 2.38542e-015
lhumerus -51.8872 7.13349 76.85
lradius 30.3436
lwrist -21.3171
lhand -4.12661 -49.4237
lfingers 7.12502
lthumb 21.6324 -20.6121
rfemur -20.1627 3.90959 29.4245
rtibia 40.3825
rfoot -5.43099 -10.5083
rtoes -1.81249
lfemur -25.1149 -7.09193 -18.8891
ltibia 46.1673
lfoot -9.83113 5.98354
ltoes -24.1368
152
root 9.95848 15.2759 -1.41115 -0.625499 -0.344527 -2.49649
lowerback 15.4203 0.775987 0.231009
upperback -1.67382 1.03863 -0.380366
thorax -10.5013 0.466801 -0.795419
lowerneck -7.95025 -2.47759 -4.29367
upperneck 17.7711 -3.71565 5.28567
head 6.90257 -1.63579 2.10913
rclavicle -9.86469e-015 1.19271e-014
rhumerus -49.8768 8.82347 -81.422
rradius 57.3047
rwrist 7.94959
rhand -8.79879 -50.5004
rfingers 7.12502
rthumb 17.1401 -79.7644
lclavicle -9.86469e-015 1.19271e-014
lhumerus -51.5577 8.39341 76.0725
lradius 29.3839
lwrist -23.5257
lhand -3.87914 -49.1475
lfingers 7.12502
lthumb 21.87 -20.3635
rfemur -21.2885 3.2777 28.578
rtibia 43.676
rfoot -9.50523 -11.8335
rtoes 2.56132
lfemur -25.7343 -6.37511 -20.3279
ltibia 48.6435
lfoot -14.3629 6.06282
ltoes -24.623
